# xmcd
#
# Track frame offsets:
#	150
#	19845
#	32066
#	46079
#	57526
#	71502
#	92641
#	109765
#	126871
#	145153
#	167663
#
# Disc length: 2699 seconds
#
# Revision: 1
# Processed by: cddbd v1.5.2PL0 Copyright (c) Steve Scherf et al.
# Submitted via: audiograbber 1.83.01
#
DISCID=930a890b
DTITLE=Bob Wayne - Driven By Demons
DYEAR=2009
DGENRE=Country
TTITLE0=Driven By Demons
TTITLE1=Reptile
TTITLE2=Estacada
TTITLE3=Home
TTITLE4=One For The Lord
TTITLE5=Drug Runner
TTITLE6=Wired
TTITLE7=Gold
TTITLE8=Love Songs Suck
TTITLE9=Final Walk
TTITLE10=Workin Man
EXTD=
EXTT0=
EXTT1=
EXTT2=
EXTT3=
EXTT4=
EXTT5=
EXTT6=
EXTT7=
EXTT8=
EXTT9=
EXTT10=
PLAYORDER=
